# xmcd
#
# Track frame offsets:
#	150
#	15252
#	30487
#	44082
#	58747
#	73235
#	89087
#	106670
#	118155
#	131860
#
# Disc length: 1997 seconds
#
# Revision: 0
# Processed by: cddbd v1.4PL0 Copyright (c) Steve Scherf et al.
# Submitted via: dBpowerAMP V4.0
#
DISCID=8e07cb0a
DTITLE=Larry Pierce - Nasty Country Songs
DYEAR=1993
DGENRE=
TTITLE0=A Law Against Brassieres
TTITLE1=This Girl Makes Me Horny
TTITLE2=Front Row Ticket
TTITLE3=Her Old Love Letters
TTITLE4=If You Want Romance, Just...
TTITLE5=She Dances 'Til She Glistens
TTITLE6=I've Known Lots of Women
TTITLE7=She Wore Me Out
TTITLE8=Fools Are a Dime a Dozen
TTITLE9=One Track Mind
EXTD=
EXTT0=
EXTT1=
EXTT2=
EXTT3=
EXTT4=
EXTT5=
EXTT6=
EXTT7=
EXTT8=
EXTT9=
PLAYORDER=
